<svg width="458" height="57" viewBox="0 0 458 57" fill="none" xmlns="http://www.w3.org/2000/svg">
<path d="M71.5199 9.672C72.9599 9.744 74.5199 10.056 75.8639 10.608C77.3039 11.208 78.0959 11.952 78.0959 13.032C78.0959 13.8 77.5439 14.304 77.0639 14.304C76.6319 14.304 76.1999 14.16 75.7439 13.608C75.1679 12.936 74.6159 12.336 74.0159 11.856C73.2479 11.232 72.4319 10.752 71.5199 10.488C71.5199 11.88 71.5199 13.152 71.5199 14.664C71.5199 15.672 71.5679 17.88 71.6159 20.472C71.6159 21.384 71.2079 21.6 70.7279 21.6C70.3919 21.6 69.9599 21.48 69.7199 21.048C69.3359 20.4 69.1919 19.608 69.1919 19.152C69.1919 19.032 69.2399 18.6 69.3119 18.456C69.3839 18.312 69.4319 18.192 69.4319 18.048C69.4559 17.736 69.5039 17.064 69.5279 12.672C69.5519 10.392 69.5279 8.352 69.5279 6.096C69.5279 5.472 69.5279 4.392 69.4319 4.056C69.3599 3.84 69.1679 3.648 68.9279 3.504C68.5679 3.288 68.2799 3.168 68.0879 3.12C67.9199 3.072 67.8479 3 67.8479 2.904C67.8479 2.76 68.0159 2.64 68.1599 2.544C68.3519 2.424 68.6159 2.328 68.8319 2.328C69.3839 2.328 70.1039 2.448 71.2559 2.976C71.9039 3.264 72.2159 3.648 72.2159 4.104C72.2159 4.392 72.0719 4.632 71.8079 4.872C71.7119 4.968 71.6639 5.112 71.6399 5.352C71.5679 6.024 71.5199 7.44 71.5199 9.672ZM104.04 10.968C104.208 9.336 104.256 8.424 104.304 7.584C104.328 7.32 104.232 7.2 103.968 7.2C101.232 7.368 99.0239 7.512 96.6239 7.8C95.8559 7.896 95.2319 8.064 94.9439 8.232C94.7279 8.352 94.5839 8.472 94.1759 8.472C93.8159 8.472 93.4319 8.232 92.8079 7.464C92.0879 6.6 92.0399 6.144 92.0399 5.832C92.0399 5.496 92.2319 5.256 92.3519 5.256C92.4479 5.256 92.4959 5.304 92.6399 5.448C93.2879 6.048 93.6479 6.336 94.1999 6.336C94.6799 6.336 95.4479 6.288 96.2879 6.216C98.5199 6.048 100.44 5.904 103.104 5.76C103.584 5.736 103.944 5.616 104.232 5.424C104.472 5.256 104.688 5.208 104.976 5.208C105.408 5.208 106.272 5.712 106.944 6.36C107.232 6.648 107.352 6.888 107.352 7.056C107.352 7.368 107.184 7.608 106.896 7.824C106.704 7.944 106.608 8.112 106.584 8.328C106.248 10.8 105.936 13.104 105.48 16.896C106.2 17.112 106.584 17.616 106.584 17.952C106.584 18.456 106.416 18.624 106.056 18.624C105.84 18.624 105.216 18.576 104.664 18.552C104.232 18.528 103.872 18.528 103.08 18.528C101.592 18.528 99.3359 18.648 96.6479 19.032C95.6399 19.176 95.1599 19.272 94.8479 19.512C94.6559 19.656 94.4159 19.752 94.2239 19.752C93.7919 19.752 93.4079 19.488 92.8559 18.888C92.1839 18.168 91.9679 17.592 91.9679 17.208C91.9679 16.728 92.1599 16.536 92.2799 16.536C92.3999 16.536 92.4959 16.632 92.5919 16.728C92.8799 17.016 93.1679 17.256 93.5039 17.424C93.7439 17.544 94.0079 17.616 94.2959 17.616C94.6319 17.616 94.9919 17.592 95.5439 17.544C96.9119 17.424 98.2799 17.304 99.6239 17.184C100.896 17.088 102.168 16.992 103.44 16.92C103.728 14.544 103.848 13.488 103.92 12.528C100.824 12.696 99.2159 12.84 97.4159 13.056C96.2639 13.2 95.9039 13.368 95.6879 13.512C95.4479 13.68 95.2319 13.752 95.0159 13.752C94.5839 13.752 94.1759 13.512 93.5279 12.744C92.8799 11.976 92.7119 11.52 92.7119 11.232C92.7119 10.992 92.8319 10.704 92.9999 10.704C93.0959 10.704 93.1919 10.776 93.3839 10.944C94.0319 11.496 94.2959 11.616 94.7759 11.616C95.0399 11.616 95.4479 11.592 96.2159 11.544C97.1519 11.472 98.1119 11.376 99.0479 11.304C100.704 11.16 102.36 11.04 104.04 10.968ZM127.248 6.264C128.616 6.168 129.912 5.928 131.088 5.664C131.472 5.568 131.568 5.496 131.736 5.328C131.928 5.136 132.168 5.064 132.384 5.064C132.6 5.064 132.96 5.232 133.296 5.472C134.16 6.12 134.544 6.6 134.544 7.032C134.544 7.224 134.472 7.512 134.04 7.728C133.776 7.848 133.536 8.04 133.392 8.28C132.144 10.32 131.304 11.544 130.44 12.672C132.048 13.8 132.432 14.712 132.432 15.456C132.432 16.032 132 16.632 131.376 16.632C131.04 16.632 130.632 16.416 130.344 16.032C129.936 15.456 129.696 15.024 129.144 14.4C126.36 17.52 122.88 20.16 118.848 21.504C118.752 21.528 118.56 21.6 118.44 21.6C118.344 21.6 118.2 21.528 118.2 21.384C118.2 21.264 118.272 21.168 118.488 21.048C121.704 19.104 124.272 17.328 127.728 13.056C126.84 12.288 126.072 11.808 125.088 11.256C124.848 11.112 124.728 11.04 124.728 10.944C124.728 10.776 124.848 10.704 125.064 10.728C125.232 10.752 125.424 10.776 125.64 10.824C126.408 10.944 127.392 11.184 128.712 11.712C129.768 10.248 130.704 8.616 131.472 7.128C131.544 7.008 131.544 6.888 131.544 6.84C131.544 6.792 131.496 6.744 131.304 6.768C130.44 6.888 129.72 7.08 129.096 7.2C128.448 7.32 128.136 7.368 127.92 7.368C127.512 7.368 127.152 7.272 126.696 7.08C125.52 8.688 124.2 10.296 123.024 11.4C121.656 12.672 120.504 13.464 119.736 13.848C119.592 13.92 119.52 13.968 119.4 13.968C119.208 13.968 119.136 13.872 119.136 13.752C119.136 13.632 119.184 13.584 119.328 13.44C120.288 12.456 121.224 11.4 122.112 10.272C123.048 9.048 123.936 7.776 124.704 6.456C125.544 5.04 125.76 4.416 125.76 4.104C125.76 3.984 125.688 3.792 125.592 3.696C125.304 3.408 125.064 3.24 124.776 3.096C124.608 3 124.536 2.952 124.536 2.856C124.536 2.688 124.992 2.448 125.328 2.448C126.096 2.448 126.744 2.736 127.488 3.168C128.328 3.648 128.64 4.008 128.64 4.392C128.64 4.704 128.592 4.92 128.28 5.088C127.992 5.256 127.872 5.352 127.776 5.472C127.632 5.664 127.512 5.856 127.248 6.264ZM161.616 6.432C161.976 6.744 162.216 7.128 162.216 7.392C162.216 7.728 162.048 8.016 161.592 8.208C161.208 8.376 161.088 8.64 160.848 9.024C159.216 11.592 157.464 14.064 155.304 16.224C153.12 18.48 150.528 20.352 147.528 21.456C147.336 21.528 147.168 21.6 146.976 21.6C146.832 21.6 146.736 21.552 146.736 21.384C146.736 21.216 146.856 21.144 147.144 20.952C150.216 18.96 152.472 16.848 154.152 14.808C155.904 12.672 157.632 10.32 158.88 7.56C158.928 7.44 158.952 7.368 158.952 7.32C158.952 7.272 158.904 7.224 158.832 7.224C158.256 7.296 157.464 7.488 156.408 7.68C155.736 7.8 155.448 7.92 155.112 7.92C154.776 7.92 154.272 7.728 153.792 7.512C152.88 8.712 151.92 9.792 150.936 10.728C149.832 11.76 148.68 12.624 147.456 13.392C147.024 13.656 146.832 13.752 146.688 13.752C146.472 13.752 146.4 13.656 146.4 13.488C146.4 13.296 146.736 13.056 147.312 12.48C148.224 11.544 149.28 10.368 150.288 9C150.96 8.112 151.608 7.152 152.232 6.144C152.64 5.472 153.024 4.704 153.024 4.296C153.024 3.888 152.616 3.6 152.16 3.36C151.944 3.24 151.872 3.168 151.872 3.072C151.872 2.952 152.184 2.688 152.664 2.688C153.048 2.688 153.936 2.88 155.016 3.552C155.76 4.008 155.904 4.32 155.904 4.68C155.904 4.944 155.64 5.256 155.376 5.424C155.16 5.568 154.992 5.784 154.392 6.624C154.464 6.648 154.632 6.648 154.752 6.648C155.232 6.624 155.808 6.528 156.624 6.384C157.608 6.216 158.232 6.072 158.544 6C158.736 5.952 158.88 5.88 159.048 5.712C159.168 5.592 159.408 5.376 159.672 5.376C160.248 5.376 160.776 5.664 161.616 6.432ZM179.232 3.864C179.616 3.864 180.072 3.816 180.528 3.768C181.416 3.648 182.4 3.48 183.456 3.24C184.056 3.096 184.296 2.952 184.536 2.856C184.824 2.736 185.232 2.64 185.472 2.64C186.528 2.64 187.56 3.192 187.56 3.72C187.56 4.032 187.488 4.392 187.08 4.512C186.6 4.656 186 4.728 185.616 4.776C184.608 4.92 182.016 5.208 180.12 5.424C179.64 5.472 179.256 5.496 178.968 5.496C178.104 5.496 177.624 5.16 176.904 4.152C176.616 3.768 176.568 3.456 176.568 3.12C176.568 2.952 176.616 2.856 176.712 2.856C176.784 2.856 176.856 2.928 176.976 3.024C177.888 3.72 178.2 3.864 179.232 3.864ZM177.192 8.544C177.504 8.544 178.536 8.448 179.376 8.352C180.816 8.184 182.808 7.992 185.856 7.656C186.168 7.632 186.384 7.536 186.696 7.32C186.888 7.2 187.152 7.104 187.392 7.104C187.824 7.104 188.64 7.656 189.264 8.232C189.792 8.712 189.84 8.928 189.84 9.216C189.84 9.48 189.576 9.648 189.336 9.768C189 9.936 188.856 10.08 188.472 10.8C187.536 12.576 186.288 14.352 184.728 16.08C182.928 18.072 180.096 20.352 176.856 21.648C176.664 21.72 176.472 21.792 176.328 21.792C176.184 21.792 176.088 21.696 176.088 21.552C176.088 21.432 176.28 21.336 176.424 21.216C179.304 19.344 181.368 17.136 183.36 14.568C184.704 12.816 185.64 11.232 186.36 9.528C186.432 9.36 186.528 9.072 186.528 9.024C186.528 8.952 186.48 8.952 186.36 8.952C186.264 8.952 186.096 8.976 185.976 9C183.408 9.24 181.512 9.552 179.112 9.96C178.2 10.128 177.888 10.248 177.672 10.368C177.408 10.512 177.144 10.608 176.904 10.608C176.52 10.608 176.232 10.488 175.584 9.84C174.888 9.12 174.648 8.448 174.648 8.088C174.648 7.68 174.768 7.416 174.888 7.416C174.984 7.416 175.032 7.464 175.248 7.656C175.944 8.304 176.256 8.544 177.192 8.544ZM214.824 6.12C215.04 5.928 215.208 5.784 215.496 5.784C215.88 5.784 216.384 6.096 216.912 6.48C217.584 6.984 218.016 7.296 218.016 7.752C218.016 8.064 217.8 8.256 217.488 8.4C217.176 8.568 217.08 8.736 216.936 9.096C215.28 13.272 213.312 16.056 211.536 17.832C209.592 19.8 207.816 20.928 206.04 21.744C205.824 21.84 205.68 21.912 205.488 21.912C205.368 21.912 205.296 21.84 205.296 21.696C205.296 21.576 205.44 21.48 205.704 21.264C208.344 19.176 210.528 16.68 211.992 14.184C213.552 11.544 214.368 9.576 214.848 7.56C214.512 7.536 214.344 7.536 214.104 7.536C212.832 7.536 211.464 7.608 210.024 7.728C208.536 7.848 207 7.992 205.416 8.16C205.44 9.672 205.488 10.872 205.584 11.856C205.632 12.456 205.656 12.936 205.656 13.32C205.656 13.92 205.416 14.28 204.72 14.28C204.312 14.28 203.976 14.016 203.664 13.488C203.496 13.2 203.376 12.696 203.376 12.408C203.376 12.288 203.4 12.168 203.448 12.048C203.472 11.976 203.472 11.928 203.472 11.616C203.472 9.984 203.448 9.264 203.328 8.04C203.28 7.56 203.232 7.392 203.016 7.128C202.8 6.84 202.44 6.576 202.104 6.408C201.912 6.312 201.84 6.24 201.84 6.168C201.84 5.976 202.296 5.736 202.632 5.736C203.16 5.736 204.072 6.048 205.152 6.912C205.68 6.936 206.208 6.912 206.544 6.888C207.312 6.84 208.176 6.744 208.92 6.696C208.92 5.928 208.92 5.16 208.92 4.392C208.92 3.504 208.8 3.12 208.224 2.904C207.888 2.784 207.672 2.736 207.48 2.688C207.408 2.664 207.36 2.64 207.36 2.544C207.36 2.448 207.504 2.328 207.624 2.208C207.84 1.992 208.152 1.848 208.56 1.848C209.208 1.848 210 2.064 210.912 2.544C211.392 2.808 211.632 3.096 211.632 3.408C211.632 3.72 211.464 3.96 211.2 4.224C211.104 4.296 211.032 4.488 210.984 4.848C210.936 5.232 210.912 5.808 210.912 6.576C212.112 6.504 213.024 6.432 214.2 6.336C214.464 6.312 214.656 6.288 214.824 6.12ZM232.368 17.256C232.656 17.256 233.088 17.064 233.592 16.776C235.8 15.48 238.152 13.872 240.24 12.072C242.448 10.104 244.248 8.208 245.88 6.216C246 6.072 246.12 6 246.192 6C246.36 6 246.432 6.096 246.432 6.216C246.432 6.336 246.384 6.456 246.288 6.624C244.896 9.072 243.456 11.112 241.296 13.344C239.232 15.456 237.216 17.208 234.888 18.96C234.624 19.152 234.384 19.392 234.264 19.536C234.048 19.824 233.736 20.112 233.304 20.112C232.8 20.112 232.488 19.896 231.84 19.2C230.808 18.096 230.496 17.472 230.496 16.968C230.496 16.464 230.664 16.056 230.88 16.056C231 16.056 231.072 16.152 231.264 16.368C231.792 16.92 232.128 17.256 232.368 17.256ZM230.256 6.12C230.136 6.048 230.088 5.976 230.088 5.88C230.088 5.76 230.184 5.688 230.328 5.688C230.424 5.688 230.544 5.688 230.784 5.712C231.72 5.832 232.776 6.096 233.832 6.672C234.936 7.272 235.488 8.208 235.488 9.072C235.488 9.888 234.912 10.416 234.192 10.416C233.736 10.416 233.28 10.176 233.016 9.528C232.824 9.072 232.536 8.52 232.008 7.8C231.408 7.008 230.832 6.456 230.256 6.12ZM271.704 7.224V12.24C272.52 11.976 273.336 11.664 274.152 11.352C274.272 11.304 274.368 11.544 274.272 11.616C273.528 12.24 272.688 12.84 271.704 13.416C271.728 17.736 271.728 20.712 271.728 21.984C271.728 22.728 271.248 23.016 270.336 23.016C269.616 23.016 269.352 22.752 269.352 22.224C269.352 21.144 269.4 18.72 269.424 14.664C268.824 14.976 268.176 15.264 267.504 15.576C267.456 16.2 267.312 16.44 267.024 16.44C266.664 16.44 266.472 16.032 265.68 13.632C266.304 13.584 267.048 13.488 267.864 13.296C268.368 13.2 268.896 13.056 269.448 12.912V11.112C269.448 9.816 269.472 8.52 269.472 7.224H267.936C267.384 8.664 266.736 9.768 265.824 10.944C265.752 11.04 265.512 10.992 265.56 10.872C265.968 9.672 266.352 7.752 266.592 5.976C266.76 4.896 266.832 3.84 266.832 3.072C268.488 3.456 269.328 3.768 269.472 4.056V3.528C269.472 1.896 269.448 1.632 269.376 0.863999C272.304 1.2 272.52 1.248 272.52 1.632C272.52 1.848 272.28 2.064 271.704 2.304V6.672H272.16C272.952 5.664 273.24 5.472 273.408 5.472C273.624 5.472 273.864 5.664 274.656 6.336C274.968 6.6 275.16 6.816 275.16 6.984C275.16 7.152 275.088 7.224 274.848 7.224H271.704ZM268.128 6.672H269.472V4.272C269.4 4.392 269.208 4.488 268.752 4.656C268.536 5.4 268.344 6.072 268.128 6.672ZM278.472 9.12V5.4H275.784C275.376 5.4 274.968 5.448 274.416 5.544L274.152 4.656C274.776 4.8 275.256 4.848 275.736 4.848H278.472V2.832C278.472 2.232 278.448 1.608 278.376 0.912C281.28 1.176 281.544 1.44 281.544 1.704C281.544 1.944 281.28 2.16 280.776 2.352V4.848H283.152C284.232 3.552 284.52 3.36 284.688 3.36C284.904 3.36 285.168 3.552 286.224 4.416C286.704 4.8 286.896 4.992 286.896 5.16C286.896 5.328 286.824 5.4 286.584 5.4H280.776V9.12H284.184C285.264 7.8 285.552 7.608 285.72 7.608C285.936 7.608 286.2 7.8 287.304 8.664C287.808 9.072 288 9.264 288 9.432C288 9.6 287.928 9.672 287.688 9.672H274.776C274.344 9.672 273.912 9.72 273.336 9.816L273.072 8.928C273.72 9.072 274.224 9.12 274.704 9.12H278.472ZM283.896 13.68V16.56C283.896 17.64 283.968 19.32 283.968 20.304C283.968 21.288 283.848 21.648 283.416 22.104C282.912 22.656 282 22.992 281.088 22.992C280.752 22.992 280.704 22.944 280.584 22.368C280.368 21.384 279.744 21.072 277.968 20.616C277.848 20.592 277.848 20.328 277.968 20.328C279.168 20.4 280.344 20.424 281.256 20.424C281.568 20.424 281.664 20.328 281.664 20.04V13.68H275.064C274.632 13.68 274.224 13.728 273.648 13.824L273.384 12.936C274.032 13.08 274.512 13.128 274.992 13.128H281.664V12.12C281.664 11.328 281.64 11.064 281.544 10.2C284.016 10.44 284.664 10.56 284.664 10.92C284.664 11.16 284.448 11.328 283.896 11.592V13.128H284.664C285.528 11.952 285.84 11.712 286.008 11.712C286.224 11.712 286.464 11.856 287.352 12.72C287.664 13.032 287.88 13.272 287.88 13.44C287.88 13.608 287.808 13.68 287.568 13.68H283.896ZM279.216 17.616C279.216 18.504 278.832 19.056 277.968 19.056C277.224 19.056 277.08 18.792 276.768 17.496C276.456 16.344 276.072 15.672 275.376 15.096C275.28 15.024 275.376 14.904 275.496 14.928C277.92 15.312 279.216 16.32 279.216 17.616ZM297.576 9.096H296.736V9.528C296.736 10.296 296.352 10.632 295.464 10.632C294.816 10.632 294.504 10.392 294.504 9.96C294.504 9.312 294.624 8.664 294.624 6.048C294.624 4.536 294.6 3.024 294.48 1.512C295.68 2.016 295.848 2.088 296.904 2.736H302.04C302.88 1.752 303.072 1.608 303.264 1.608C303.504 1.608 303.696 1.752 304.584 2.52C304.992 2.904 305.136 3.072 305.136 3.264C305.136 3.48 304.92 3.696 304.464 3.96V4.872C304.464 7.296 304.584 8.952 304.584 9.504C304.584 10.2 304.176 10.488 303.288 10.488C302.592 10.488 302.304 10.248 302.304 9.648V9.096H299.784C299.76 10.272 299.688 11.448 299.568 12.6H302.184C302.904 11.76 303.096 11.616 303.288 11.616C303.528 11.616 303.696 11.76 304.512 12.504C304.872 12.84 305.016 13.032 305.016 13.224C305.016 13.392 304.944 13.464 304.368 13.896C304.2 18 303.936 19.656 303.408 20.856C303.072 21.6 302.64 21.984 302.04 22.296C301.632 22.512 301.056 22.584 300.504 22.584C300.096 22.584 299.976 22.44 299.928 22.104C299.808 21.264 299.256 20.808 297.672 20.352C297.552 20.328 297.6 20.04 297.72 20.04C298.968 20.136 299.904 20.208 300.672 20.208C301.464 20.208 301.68 19.944 301.92 18.384C302.136 16.944 302.256 15.12 302.28 13.152H299.472C298.776 17.712 296.808 20.544 293.112 22.728C293.016 22.8 292.872 22.632 292.944 22.536C296.352 18.936 297.528 15.528 297.576 9.096ZM302.304 8.544V3.288H296.736V8.544H302.304ZM308.928 4.176V6.168C308.928 11.448 309.048 15.072 309.048 16.272C309.048 16.944 308.64 17.256 307.752 17.256C307.032 17.256 306.768 17.016 306.768 16.392C306.768 15.672 306.864 13.512 306.864 9.192C306.864 5.472 306.864 4.416 306.768 2.832C309.36 3.12 309.624 3.168 309.624 3.576C309.624 3.792 309.432 3.96 308.928 4.176ZM311.568 19.8V3.144C311.568 2.328 311.544 1.992 311.424 1.128C314.328 1.512 314.4 1.512 314.4 1.896C314.4 2.16 314.208 2.352 313.776 2.568V11.304C313.776 16.44 313.896 18.888 313.896 20.208C313.896 21.312 313.704 21.72 313.104 22.128C312.6 22.488 311.976 22.704 311.352 22.704C310.824 22.704 310.656 22.584 310.584 22.104C310.488 21.168 309.816 20.712 307.824 20.256C307.704 20.232 307.704 19.896 307.824 19.92C308.952 20.04 310.32 20.112 311.208 20.112C311.496 20.112 311.568 20.04 311.568 19.8ZM335.28 10.368V21.024H338.088C339.336 19.344 339.624 19.152 339.792 19.152C340.008 19.152 340.248 19.344 341.52 20.448C342.096 20.952 342.288 21.168 342.288 21.336C342.288 21.504 342.216 21.576 341.976 21.576H329.256C328.632 21.576 328.032 21.624 327.216 21.72L326.952 20.832C327.816 20.976 328.464 21.024 329.112 21.024H332.928V10.368H328.68C328.2 10.368 327.744 10.416 327.12 10.512L326.856 9.624C327.576 9.768 328.104 9.816 328.632 9.816H332.928V4.872C332.928 3.384 332.88 2.232 332.784 1.44C335.856 1.728 336.144 1.992 336.144 2.256C336.144 2.52 335.856 2.736 335.28 2.928V9.816H338.808C340.08 8.352 340.368 8.16 340.536 8.16C340.752 8.16 340.992 8.352 342.12 9.312C342.6 9.744 342.792 9.96 342.792 10.128C342.792 10.296 342.72 10.368 342.48 10.368H335.28ZM323.64 15.768V10.104C322.704 11.208 321.672 12.192 320.52 13.104C320.424 13.176 320.208 12.984 320.28 12.888C322.008 10.848 323.616 7.824 324.6 4.896C325.08 3.504 325.416 2.136 325.56 0.887999C327.744 1.488 328.728 1.896 328.728 2.208C328.728 2.472 328.488 2.64 327.912 2.76C327.048 4.92 326.064 6.792 324.912 8.448C326.232 8.64 326.424 8.712 326.424 8.976C326.424 9.192 326.28 9.312 325.776 9.576V21.984C325.776 22.68 325.368 22.992 324.552 22.992C323.736 22.992 323.496 22.848 323.496 22.08C323.496 21.456 323.64 19.56 323.64 15.768ZM353.568 7.2V9.528C355.272 10.176 356.16 11.04 356.16 12.096C356.16 12.768 355.704 13.248 355.056 13.248C354.624 13.248 354.36 12.984 354.312 12.408C354.192 11.448 353.952 10.728 353.568 10.152C353.592 14.688 353.664 20.328 353.664 22.272C353.664 22.8 353.184 23.04 352.416 23.04C351.792 23.04 351.48 22.848 351.48 22.344C351.48 21.12 351.648 16.032 351.672 11.856C350.736 14.328 349.896 15.624 348.384 17.208C348.312 17.304 348.12 17.184 348.168 17.088C349.536 14.376 350.736 10.584 351.264 7.2H350.256C349.776 7.2 349.296 7.248 348.672 7.344L348.408 6.456C349.104 6.6 349.632 6.648 350.16 6.648H351.528V4.008C351.528 2.808 351.504 1.848 351.408 0.935999C353.976 1.176 354.408 1.272 354.408 1.632C354.408 1.896 354.168 2.088 353.568 2.328V6.648H353.952C354.648 5.424 354.936 5.232 355.104 5.232C355.32 5.232 355.536 5.424 356.328 6.216C356.64 6.552 356.832 6.792 356.832 6.96C356.832 7.128 356.76 7.2 356.52 7.2H353.568ZM363.216 12.696L363.36 16.872C363.432 19.032 363.456 19.896 363.456 20.832C363.456 21.48 363.264 21.984 362.952 22.32C362.544 22.776 361.8 22.992 360.96 22.992C360.744 22.992 360.696 22.896 360.6 22.464C360.432 21.648 359.952 21.264 357.936 20.736C357.816 20.712 357.84 20.424 357.96 20.424C358.896 20.496 360.24 20.52 361.104 20.52C361.296 20.52 361.344 20.424 361.344 20.088V17.112C359.832 18.264 357.984 19.488 356.376 20.28C356.304 21.072 356.208 21.24 355.944 21.24C355.752 21.24 355.464 20.76 354.504 18.552C355.056 18.504 355.824 18.36 356.784 18.096C358.08 17.736 359.64 17.304 361.344 16.632V12.192H358.632C358.056 12.192 357.48 12.24 356.712 12.336L356.448 11.448C357.288 11.592 357.936 11.64 358.56 11.64H361.344V8.856H358.824C358.344 8.856 357.864 8.904 357.216 9L356.952 8.112C357.672 8.256 358.224 8.304 358.776 8.304H361.344V5.64H357.864C357.456 5.64 357.072 5.688 356.544 5.784L356.28 4.896C356.904 5.04 357.36 5.088 357.816 5.088H363.096C363.48 4.296 363.864 3.384 364.152 2.568C364.392 1.896 364.56 1.32 364.584 0.983999C366.72 1.8 367.32 2.064 367.32 2.4C367.32 2.736 367.176 2.808 366.36 2.904C365.376 3.96 364.776 4.464 363.816 5.088H367.056C367.92 4.08 368.208 3.888 368.376 3.888C368.592 3.888 368.856 4.08 369.672 4.728C370.032 5.016 370.224 5.232 370.224 5.4C370.224 5.568 370.152 5.64 369.912 5.64H363.384V8.304H365.544C366.504 7.224 366.792 7.032 366.96 7.032C367.176 7.032 367.416 7.224 368.256 7.944C368.592 8.232 368.784 8.448 368.784 8.616C368.784 8.784 368.712 8.856 368.472 8.856H363.384V11.64H367.128C368.088 10.44 368.448 10.176 368.616 10.176C368.832 10.176 369.072 10.368 370.008 11.184C370.44 11.544 370.608 11.784 370.608 11.952C370.608 12.12 370.536 12.192 370.296 12.192H363.576C363.96 13.512 364.608 14.808 365.472 15.864C365.928 15.336 366.312 14.736 366.72 14.088C367.008 13.632 367.248 13.152 367.44 12.6C368.856 13.416 369.672 14.04 369.672 14.304C369.672 14.544 369.432 14.664 368.544 14.664C367.848 15.144 366.84 15.696 365.76 16.2C365.904 16.368 366.048 16.536 366.216 16.68C367.512 17.928 369.072 18.888 370.944 19.512C371.064 19.56 371.016 19.776 370.896 19.824C370.176 20.112 369.864 20.424 369.528 21.216C369.336 21.744 369.288 21.816 369.12 21.816C369 21.816 368.688 21.648 368.304 21.384C367.08 20.4 366 19.248 365.16 17.928C364.224 16.488 363.696 14.832 363.216 12.696ZM361.392 3.48C361.392 4.176 360.864 4.8 360.216 4.8C359.592 4.8 359.448 4.608 359.208 3.456C359.016 2.568 358.776 2.16 358.128 1.344C358.056 1.248 358.128 1.128 358.248 1.152C360.456 1.728 361.392 2.4 361.392 3.48ZM359.928 15.456C359.928 16.104 359.424 16.632 358.8 16.632C358.248 16.632 358.224 16.608 357.744 15.288C357.36 14.328 356.952 13.704 356.304 13.128C356.208 13.056 356.328 12.888 356.448 12.912C358.704 13.44 359.928 14.304 359.928 15.456ZM385.632 7.248V4.704H378.672C378.12 4.704 377.568 4.752 376.848 4.848L376.584 3.96C377.424 4.104 378.048 4.152 378.672 4.152H385.632C385.608 2.544 385.584 1.728 385.464 0.863999C388.296 1.152 388.512 1.2 388.512 1.608C388.512 1.848 388.32 1.992 387.744 2.232V4.152H393.48C394.608 2.808 394.896 2.616 395.064 2.616C395.28 2.616 395.568 2.808 396.744 3.696C397.272 4.104 397.464 4.296 397.464 4.464C397.464 4.632 397.392 4.704 397.152 4.704H387.744V7.248H392.184C393.024 6.288 393.216 6.144 393.408 6.144C393.648 6.144 393.84 6.288 394.752 7.032C395.16 7.392 395.304 7.56 395.304 7.752C395.304 8.04 395.16 8.184 394.56 8.568V9.672C394.56 12.576 394.656 14.592 394.656 15.24C394.656 15.84 394.32 16.128 393.312 16.128C392.712 16.128 392.424 15.936 392.424 15.36V15H387.792C387.792 15.936 387.816 16.848 387.816 17.784H393.864C395.016 16.368 395.304 16.176 395.472 16.176C395.688 16.176 395.976 16.368 397.224 17.304C397.8 17.736 397.992 17.928 397.992 18.096C397.992 18.264 397.92 18.336 397.68 18.336H387.816C387.84 20.136 387.864 21.456 387.864 22.2C387.864 22.824 387.408 23.112 386.472 23.112C385.776 23.112 385.464 22.872 385.464 22.296C385.464 21.6 385.488 20.328 385.536 18.336H378.384C377.832 18.336 377.28 18.384 376.536 18.48L376.272 17.592C377.112 17.736 377.736 17.784 378.36 17.784H385.536C385.536 17.208 385.56 15.936 385.584 15H381.24V15.432C381.24 16.104 380.88 16.368 379.896 16.368C379.224 16.368 378.984 16.104 378.984 15.6C378.984 14.448 379.104 13.224 379.104 8.568C379.104 7.752 379.08 6.912 378.984 6.072C380.16 6.552 380.352 6.624 381.504 7.248H385.632ZM392.424 7.8H387.744C387.744 8.784 387.744 9.744 387.768 10.728H392.424V7.8ZM385.632 7.8H381.24V10.728H385.608C385.632 10.128 385.632 9.528 385.632 8.952V7.8ZM381.24 14.448H385.584C385.608 13.512 385.608 12.096 385.608 11.28H381.24V14.448ZM387.792 14.448H392.424V11.28H387.768C387.768 12.048 387.768 13.512 387.792 14.448ZM15.5087 39.24C15.6047 40.488 15.7727 42.144 15.9167 43.392C15.9407 43.584 15.8687 43.68 15.6767 43.728C15.4367 43.776 15.3887 43.728 15.2927 43.536C14.6447 42.288 13.9967 41.28 13.1327 40.536C12.2207 39.768 11.1167 39.408 10.0607 39.408C6.58069 39.408 3.89269 42.672 3.89269 47.664C3.89269 52.08 6.60469 55.44 10.1807 55.44C12.7967 55.44 14.6687 54.36 16.0847 52.104C16.1567 51.984 16.2527 51.936 16.5647 52.08C16.7807 52.176 16.8287 52.32 16.7327 52.512C15.3407 55.032 13.2527 56.856 9.67669 56.856C4.39669 56.856 0.580694 53.112 0.580694 47.712C0.580694 42.408 4.44469 38.592 9.77269 38.592C10.9487 38.592 11.9327 38.76 12.8207 38.976C13.7807 39.216 14.4767 39.384 15.5087 39.24ZM26.7497 48.168V52.032C26.7497 54.432 26.7737 54.768 27.0137 55.224C27.3257 55.752 27.8537 55.752 28.8617 55.848C29.0297 55.872 29.0537 55.92 29.0537 56.184C29.0537 56.4 29.0297 56.472 28.8137 56.472C27.7097 56.424 26.4857 56.376 25.3817 56.376C24.3257 56.376 23.1017 56.424 22.0697 56.472C21.8777 56.472 21.8297 56.4 21.8297 56.184C21.8297 55.92 21.8777 55.872 22.0697 55.848C22.9577 55.752 23.4857 55.728 23.7257 55.224C24.0137 54.696 24.0137 53.64 24.0137 52.032V43.344C24.0137 41.04 24.0137 40.752 23.7737 40.224C23.5337 39.744 22.8137 39.72 21.8297 39.624C21.6617 39.6 21.6137 39.552 21.6137 39.288C21.6137 39 21.6617 38.976 21.8297 38.976C22.9577 39.024 24.2057 39.048 25.2617 39.048C26.1737 39.048 27.7097 38.952 29.2217 38.952C33.9737 38.952 35.7737 40.92 35.7737 43.44C35.7737 45.24 34.5497 47.016 31.7657 47.736C32.7977 49.608 33.9497 51.624 35.2217 53.688C35.7497 54.552 36.1817 55.2 36.6377 55.488C37.0217 55.728 37.4057 55.776 38.1017 55.848C38.2457 55.872 38.2937 55.896 38.2937 56.16C38.2937 56.424 38.2457 56.472 38.1017 56.472C37.0937 56.424 36.3257 56.376 35.5577 56.376C34.8857 56.376 34.1897 56.376 33.3497 56.4C33.1337 55.8 32.8217 55.128 32.4857 54.528C31.3097 52.368 30.2297 50.352 29.0297 48.192C28.7897 48.216 28.5017 48.216 28.2377 48.216C27.7577 48.216 27.3497 48.216 26.7497 48.168ZM26.7497 43.344V47.352C27.2777 47.424 27.8537 47.448 28.3097 47.448C31.5497 47.448 32.7257 45.744 32.7257 43.584C32.7257 41.16 31.5017 39.768 28.7417 39.768C28.1177 39.768 27.3497 39.744 27.0137 40.224C26.7017 40.728 26.7497 41.976 26.7497 43.344ZM51.4978 38.592C56.9218 38.592 60.8098 42.336 60.8098 47.688C60.8098 52.992 56.9218 56.88 51.4978 56.88C46.0738 56.88 42.2098 52.992 42.2098 47.736C42.2098 42.456 46.0738 38.592 51.4978 38.592ZM51.4978 39.408C47.9698 39.408 45.5458 42.72 45.5458 47.688C45.5458 52.752 47.9218 56.04 51.4978 56.04C55.0738 56.04 57.4738 52.752 57.4738 47.76C57.4738 42.672 55.0258 39.408 51.4978 39.408ZM72.3321 48.624L71.1321 48C68.2761 46.56 67.3161 45.36 67.3161 42.912C67.3161 40.464 69.4761 38.592 72.6921 38.592C73.7481 38.592 74.4441 38.76 75.1161 38.928C75.8601 39.12 76.7001 39.12 77.4921 39C77.4921 40.224 77.6601 41.784 77.7561 43.056C77.7561 43.176 77.7561 43.248 77.5161 43.296C77.2521 43.344 77.2041 43.272 77.1561 43.152C76.2201 40.944 74.7321 39.36 72.8121 39.36C71.1801 39.36 69.9321 40.536 69.9321 42.384C69.9321 43.464 70.5801 44.472 72.5961 45.456L73.8921 46.08C77.3001 47.736 78.5001 48.816 78.5001 51.672C78.5001 54.912 76.1241 56.856 72.0921 56.856C70.4121 56.856 68.8281 56.496 67.4841 56.016C67.1241 54.696 66.8121 53.184 66.6441 52.008C66.6201 51.84 66.6201 51.672 66.9081 51.624C67.1721 51.576 67.2681 51.648 67.3161 51.768C68.3961 54.192 70.2681 56.088 72.3561 56.088C74.3961 56.088 75.8361 54.648 75.8361 52.632C75.8361 50.808 74.7561 49.872 72.3321 48.624ZM90.0883 48.624L88.8883 48C86.0323 46.56 85.0723 45.36 85.0723 42.912C85.0723 40.464 87.2323 38.592 90.4483 38.592C91.5043 38.592 92.2003 38.76 92.8723 38.928C93.6163 39.12 94.4563 39.12 95.2483 39C95.2483 40.224 95.4163 41.784 95.5123 43.056C95.5123 43.176 95.5123 43.248 95.2723 43.296C95.0083 43.344 94.9603 43.272 94.9123 43.152C93.9763 40.944 92.4883 39.36 90.5683 39.36C88.9363 39.36 87.6883 40.536 87.6883 42.384C87.6883 43.464 88.3363 44.472 90.3523 45.456L91.6483 46.08C95.0563 47.736 96.2563 48.816 96.2563 51.672C96.2563 54.912 93.8803 56.856 89.8483 56.856C88.1683 56.856 86.5843 56.496 85.2403 56.016C84.8803 54.696 84.5683 53.184 84.4003 52.008C84.3763 51.84 84.3763 51.672 84.6643 51.624C84.9283 51.576 85.0243 51.648 85.0723 51.768C86.1523 54.192 88.0243 56.088 90.1123 56.088C92.1523 56.088 93.5923 54.648 93.5923 52.632C93.5923 50.808 92.5123 49.872 90.0883 48.624ZM111.517 38.592C116.941 38.592 120.829 42.336 120.829 47.688C120.829 52.992 116.941 56.88 111.517 56.88C106.093 56.88 102.229 52.992 102.229 47.736C102.229 42.456 106.093 38.592 111.517 38.592ZM111.517 39.408C107.989 39.408 105.565 42.72 105.565 47.688C105.565 52.752 107.941 56.04 111.517 56.04C115.093 56.04 117.493 52.752 117.493 47.76C117.493 42.672 115.045 39.408 111.517 39.408ZM130.22 43.368L132.884 50.832C133.436 52.368 133.676 53.088 133.916 53.904C134.204 53.088 134.42 52.272 134.948 50.736L137.468 43.392C137.876 42.216 138.116 41.04 137.876 40.512C137.636 40.008 137.036 39.768 136.148 39.672C135.932 39.672 135.86 39.624 135.86 39.336C135.86 39.024 135.932 38.976 136.148 38.976C137.132 39 138.14 39.072 139.1 39.072C140.036 39.072 140.924 39 141.812 38.976C141.98 38.976 142.028 39.024 142.028 39.312C142.028 39.624 141.98 39.672 141.812 39.672C140.972 39.768 140.54 40.08 140.132 40.512C139.628 41.04 139.148 42.024 138.644 43.392L135.5 51.96C134.636 54.288 134.468 54.912 134.06 56.16C132.524 56.856 132.332 56.904 132.212 56.904C132.116 56.904 132.092 56.856 132.044 56.76C131.564 55.248 131.108 53.976 130.388 52.032L127.22 43.392C126.668 41.856 126.284 40.824 125.876 40.344C125.468 39.864 125.228 39.744 124.244 39.672C124.076 39.648 124.028 39.624 124.028 39.336C124.028 39.024 124.076 38.976 124.244 38.976C125.372 39.024 126.524 39.072 127.628 39.072C128.66 39.072 130.004 39.024 131.06 38.976C131.228 38.976 131.3 39.024 131.3 39.336C131.3 39.624 131.228 39.672 131.06 39.672C130.196 39.768 129.644 39.816 129.452 40.296C129.26 40.824 129.668 41.832 130.22 43.368ZM151.406 47.712V52.056C151.406 53.064 151.382 54.408 151.742 54.96C152.126 55.608 152.99 55.656 154.046 55.656C156.278 55.656 157.406 55.152 158.174 54.504C158.918 53.88 159.566 52.944 160.094 52.056C160.166 51.888 160.238 51.816 160.478 51.888C160.79 51.984 160.766 52.08 160.742 52.224C160.478 53.496 159.974 55.248 159.494 56.472C157.382 56.424 155.174 56.4 153.182 56.4C151.07 56.4 148.766 56.424 146.63 56.472C146.462 56.472 146.414 56.424 146.414 56.184C146.414 55.944 146.462 55.896 146.63 55.872C147.542 55.776 147.95 55.752 148.214 55.248C148.502 54.72 148.526 53.664 148.526 52.056V43.344C148.526 41.04 148.502 40.728 148.238 40.2C147.998 39.744 147.494 39.72 146.486 39.624C146.318 39.6 146.27 39.576 146.27 39.312C146.27 39.024 146.318 38.976 146.486 38.976C148.598 39.048 150.806 39.072 152.846 39.072C154.814 39.072 156.926 39.048 159.014 38.976C159.11 40.2 159.278 41.808 159.47 43.056C159.494 43.2 159.446 43.296 159.206 43.344C158.942 43.368 158.846 43.32 158.798 43.176C158.438 42.216 157.79 41.208 157.166 40.704C156.494 40.104 155.438 39.84 153.566 39.84C152.702 39.84 151.958 39.888 151.646 40.44C151.358 40.944 151.406 42.048 151.406 43.344V46.848C151.79 46.872 152.342 46.872 152.75 46.872C154.214 46.872 155.342 46.68 155.774 46.344C156.326 45.936 156.566 45.36 156.71 44.712C156.734 44.568 156.782 44.496 157.07 44.496C157.334 44.496 157.358 44.568 157.358 44.736C157.334 45.6 157.31 46.44 157.31 47.256C157.31 48.144 157.334 49.176 157.358 50.04C157.358 50.232 157.334 50.304 157.07 50.304C156.806 50.304 156.758 50.232 156.71 50.064C156.566 49.464 156.302 48.672 155.75 48.264C155.294 47.976 154.19 47.688 152.75 47.688C152.342 47.688 151.79 47.688 151.406 47.712ZM170.754 48.168V52.032C170.754 54.432 170.778 54.768 171.018 55.224C171.33 55.752 171.858 55.752 172.866 55.848C173.034 55.872 173.058 55.92 173.058 56.184C173.058 56.4 173.034 56.472 172.818 56.472C171.714 56.424 170.49 56.376 169.386 56.376C168.33 56.376 167.106 56.424 166.074 56.472C165.882 56.472 165.834 56.4 165.834 56.184C165.834 55.92 165.882 55.872 166.074 55.848C166.962 55.752 167.49 55.728 167.73 55.224C168.018 54.696 168.018 53.64 168.018 52.032V43.344C168.018 41.04 168.018 40.752 167.778 40.224C167.538 39.744 166.818 39.72 165.834 39.624C165.666 39.6 165.618 39.552 165.618 39.288C165.618 39 165.666 38.976 165.834 38.976C166.962 39.024 168.21 39.048 169.266 39.048C170.178 39.048 171.714 38.952 173.226 38.952C177.978 38.952 179.778 40.92 179.778 43.44C179.778 45.24 178.554 47.016 175.77 47.736C176.802 49.608 177.954 51.624 179.226 53.688C179.754 54.552 180.186 55.2 180.642 55.488C181.026 55.728 181.41 55.776 182.106 55.848C182.25 55.872 182.298 55.896 182.298 56.16C182.298 56.424 182.25 56.472 182.106 56.472C181.098 56.424 180.33 56.376 179.562 56.376C178.89 56.376 178.194 56.376 177.354 56.4C177.138 55.8 176.826 55.128 176.49 54.528C175.314 52.368 174.234 50.352 173.034 48.192C172.794 48.216 172.506 48.216 172.242 48.216C171.762 48.216 171.354 48.216 170.754 48.168ZM170.754 43.344V47.352C171.282 47.424 171.858 47.448 172.314 47.448C175.554 47.448 176.73 45.744 176.73 43.584C176.73 41.16 175.506 39.768 172.746 39.768C172.122 39.768 171.354 39.744 171.018 40.224C170.706 40.728 170.754 41.976 170.754 43.344ZM203.243 48.168V52.032C203.243 54.432 203.267 54.768 203.507 55.224C203.819 55.752 204.347 55.752 205.355 55.848C205.523 55.872 205.547 55.92 205.547 56.184C205.547 56.4 205.523 56.472 205.307 56.472C204.203 56.424 202.979 56.376 201.875 56.376C200.819 56.376 199.595 56.424 198.563 56.472C198.371 56.472 198.323 56.4 198.323 56.184C198.323 55.92 198.371 55.872 198.563 55.848C199.451 55.752 199.979 55.728 200.219 55.224C200.507 54.696 200.507 53.64 200.507 52.032V43.344C200.507 41.04 200.507 40.752 200.267 40.224C200.027 39.744 199.307 39.72 198.323 39.624C198.155 39.6 198.107 39.552 198.107 39.288C198.107 39 198.155 38.976 198.323 38.976C199.451 39.024 200.699 39.048 201.755 39.048C202.667 39.048 204.203 38.952 205.715 38.952C210.467 38.952 212.267 40.92 212.267 43.44C212.267 45.24 211.043 47.016 208.259 47.736C209.291 49.608 210.443 51.624 211.715 53.688C212.243 54.552 212.675 55.2 213.131 55.488C213.515 55.728 213.899 55.776 214.595 55.848C214.739 55.872 214.787 55.896 214.787 56.16C214.787 56.424 214.739 56.472 214.595 56.472C213.587 56.424 212.819 56.376 212.051 56.376C211.379 56.376 210.683 56.376 209.843 56.4C209.627 55.8 209.315 55.128 208.979 54.528C207.803 52.368 206.723 50.352 205.523 48.192C205.283 48.216 204.995 48.216 204.731 48.216C204.251 48.216 203.843 48.216 203.243 48.168ZM203.243 43.344V47.352C203.771 47.424 204.347 47.448 204.803 47.448C208.043 47.448 209.219 45.744 209.219 43.584C209.219 41.16 207.995 39.768 205.235 39.768C204.611 39.768 203.843 39.744 203.507 40.224C203.195 40.728 203.243 41.976 203.243 43.344ZM224.788 48.624L223.588 48C220.732 46.56 219.772 45.36 219.772 42.912C219.772 40.464 221.932 38.592 225.148 38.592C226.204 38.592 226.9 38.76 227.572 38.928C228.316 39.12 229.156 39.12 229.948 39C229.948 40.224 230.116 41.784 230.212 43.056C230.212 43.176 230.212 43.248 229.972 43.296C229.708 43.344 229.66 43.272 229.612 43.152C228.676 40.944 227.188 39.36 225.268 39.36C223.636 39.36 222.388 40.536 222.388 42.384C222.388 43.464 223.036 44.472 225.052 45.456L226.348 46.08C229.756 47.736 230.956 48.816 230.956 51.672C230.956 54.912 228.58 56.856 224.548 56.856C222.868 56.856 221.284 56.496 219.94 56.016C219.58 54.696 219.268 53.184 219.1 52.008C219.076 51.84 219.076 51.672 219.364 51.624C219.628 51.576 219.724 51.648 219.772 51.768C220.852 54.192 222.724 56.088 224.812 56.088C226.852 56.088 228.292 54.648 228.292 52.632C228.292 50.808 227.212 49.872 224.788 48.624ZM249.001 42.816C249.001 41.832 249.409 40.368 251.833 38.712C251.929 38.64 252.097 38.64 252.265 38.808C252.481 39.048 252.409 39.144 252.289 39.24C251.329 39.984 250.777 40.704 250.777 41.4C250.777 41.736 251.137 42 251.401 42.144C251.809 42.288 252.265 42.408 252.265 43.104C252.265 43.8 251.473 44.76 250.537 44.76C249.937 44.76 249.001 43.992 249.001 42.816ZM253.369 42.816C253.369 41.832 253.777 40.368 256.201 38.712C256.297 38.64 256.465 38.64 256.633 38.808C256.849 39.048 256.777 39.144 256.657 39.24C255.697 39.984 255.145 40.704 255.145 41.4C255.145 41.736 255.505 42 255.769 42.144C256.177 42.288 256.633 42.408 256.633 43.104C256.633 43.8 255.841 44.76 254.905 44.76C254.305 44.76 253.369 43.992 253.369 42.816ZM268.084 43.344V52.056C268.084 53.064 268.06 54.408 268.396 54.96C268.804 55.608 269.668 55.656 270.7 55.656C272.956 55.656 274.06 54.984 274.804 54.432C275.524 53.856 276.172 52.896 276.676 52.032C276.772 51.864 276.82 51.816 277.084 51.888C277.348 51.984 277.348 52.08 277.324 52.224C277.06 53.496 276.532 55.248 276.076 56.472C273.94 56.424 271.732 56.4 269.74 56.4C267.628 56.4 265.348 56.424 263.212 56.472C263.044 56.472 262.996 56.424 262.996 56.184C262.996 55.944 263.044 55.896 263.212 55.872C264.124 55.776 264.58 55.752 264.868 55.248C265.18 54.72 265.18 53.664 265.18 52.056V43.344C265.18 41.04 265.156 40.728 264.892 40.2C264.652 39.744 264.124 39.72 263.164 39.624C262.972 39.6 262.924 39.576 262.924 39.312C262.924 39.024 262.972 38.976 263.164 38.976C264.196 39 265.468 39.072 266.572 39.072C267.676 39.072 268.948 39 269.98 38.976C270.172 38.976 270.244 39.024 270.244 39.312C270.244 39.576 270.172 39.6 270.028 39.624C269.116 39.72 268.612 39.72 268.348 40.2C268.06 40.752 268.084 41.832 268.084 43.344ZM292.693 52.704L291.685 49.872C290.893 49.824 289.861 49.776 288.949 49.776C287.941 49.776 286.981 49.824 285.973 49.872L285.061 52.392C284.533 53.808 284.581 54.528 284.797 55.08C285.013 55.584 285.805 55.752 286.669 55.848C286.813 55.848 286.885 55.896 286.885 56.16C286.885 56.424 286.813 56.472 286.621 56.472C285.733 56.424 284.509 56.424 283.621 56.424C282.781 56.424 281.893 56.424 281.101 56.472C280.885 56.472 280.837 56.424 280.837 56.16C280.837 55.896 280.885 55.848 281.101 55.848C281.749 55.752 282.157 55.44 282.517 55.104C282.997 54.624 283.453 53.736 283.981 52.296L286.861 44.52C287.989 41.496 288.205 40.752 288.589 39.48L290.485 38.616C290.653 38.616 290.749 38.664 290.797 38.832C291.277 40.32 291.709 41.52 292.789 44.664L295.501 52.488C295.981 53.904 296.317 54.744 296.701 55.224C297.109 55.728 297.349 55.776 298.261 55.848C298.525 55.848 298.573 55.896 298.573 56.16C298.573 56.424 298.525 56.472 298.261 56.472C297.229 56.448 295.885 56.424 294.853 56.424C293.917 56.424 292.501 56.448 291.469 56.472C291.301 56.472 291.277 56.424 291.277 56.16C291.277 55.896 291.325 55.848 291.469 55.848C292.381 55.8 292.981 55.704 293.125 55.224C293.293 54.696 293.149 54.024 292.693 52.704ZM291.349 48.912L289.909 44.712C289.357 43.128 289.165 42.432 288.901 41.568C288.565 42.504 288.373 43.128 287.821 44.664L286.285 48.912C287.077 48.96 288.037 48.96 288.949 48.96C289.717 48.96 290.653 48.96 291.349 48.912ZM306.535 41.568H306.199L306.319 52.08C306.343 53.616 306.487 54.648 306.823 55.128C307.159 55.608 307.879 55.776 308.623 55.872C308.815 55.896 308.839 55.944 308.839 56.184C308.839 56.424 308.791 56.472 308.599 56.472C307.687 56.424 306.775 56.4 305.791 56.4C304.807 56.4 303.775 56.424 302.911 56.472C302.719 56.472 302.695 56.424 302.695 56.208C302.695 55.968 302.719 55.92 302.887 55.896C303.559 55.8 304.231 55.632 304.543 55.128C304.927 54.6 305.119 53.568 305.143 52.08L305.263 43.344C305.287 41.808 305.191 40.872 304.879 40.416C304.543 39.936 303.775 39.768 302.863 39.672C302.695 39.648 302.647 39.6 302.647 39.312C302.647 39.048 302.695 38.976 302.863 38.976C303.727 39 304.663 39.048 305.383 39.048C306.079 39.048 307.135 39.048 308.311 39.024C308.839 40.008 309.223 40.56 310.159 41.976L315.655 50.16C316.495 51.432 316.999 52.176 317.623 53.256V50.52L317.575 43.344C317.575 41.952 317.335 40.92 316.999 40.392C316.711 39.888 315.943 39.744 315.295 39.672C315.079 39.648 315.007 39.624 315.007 39.336C315.007 39.024 315.055 38.976 315.223 38.976C315.991 39.024 317.071 39.072 318.007 39.072C318.967 39.072 320.119 39.024 320.767 38.976C320.935 38.976 320.983 39.024 320.983 39.312C320.983 39.576 320.935 39.624 320.767 39.648C320.095 39.744 319.495 39.888 319.207 40.392C318.847 40.92 318.655 41.976 318.631 43.344L318.487 52.056C318.463 53.712 318.487 54.72 318.535 56.04C316.999 56.856 316.903 56.88 316.783 56.88C316.687 56.88 316.615 56.832 316.567 56.76C315.799 55.536 315.367 54.84 313.855 52.56L306.535 41.568ZM328.667 52.056V43.344C328.667 41.04 328.667 40.728 328.379 40.2C328.139 39.744 327.563 39.72 326.531 39.624C326.387 39.624 326.339 39.6 326.339 39.312C326.339 39.024 326.363 38.976 326.531 38.976C327.635 39.024 328.667 39.048 329.819 39.048C330.995 39.048 333.059 38.928 334.523 38.928C341.219 38.928 344.771 42.096 344.771 47.544C344.771 53.184 340.979 56.544 334.331 56.544C333.035 56.544 331.307 56.4 329.843 56.4C328.715 56.4 327.683 56.424 326.675 56.472C326.507 56.472 326.459 56.448 326.459 56.184C326.459 55.92 326.507 55.896 326.675 55.872C327.611 55.8 328.187 55.656 328.427 55.248C328.691 54.768 328.667 53.664 328.667 52.056ZM331.499 43.344V52.056C331.499 54.024 331.547 54.504 331.883 54.984C332.267 55.512 333.035 55.728 334.283 55.728C339.035 55.728 341.603 52.776 341.603 47.64C341.603 42.624 339.059 39.768 334.451 39.768C333.059 39.768 332.123 39.936 331.811 40.416C331.475 40.896 331.499 41.64 331.499 43.344ZM356.301 48.624L355.101 48C352.245 46.56 351.285 45.36 351.285 42.912C351.285 40.464 353.445 38.592 356.661 38.592C357.717 38.592 358.413 38.76 359.085 38.928C359.829 39.12 360.669 39.12 361.461 39C361.461 40.224 361.629 41.784 361.725 43.056C361.725 43.176 361.725 43.248 361.485 43.296C361.221 43.344 361.173 43.272 361.125 43.152C360.189 40.944 358.701 39.36 356.781 39.36C355.149 39.36 353.901 40.536 353.901 42.384C353.901 43.464 354.549 44.472 356.565 45.456L357.861 46.08C361.269 47.736 362.469 48.816 362.469 51.672C362.469 54.912 360.093 56.856 356.061 56.856C354.381 56.856 352.797 56.496 351.453 56.016C351.093 54.696 350.781 53.184 350.613 52.008C350.589 51.84 350.589 51.672 350.877 51.624C351.141 51.576 351.237 51.648 351.285 51.768C352.365 54.192 354.237 56.088 356.325 56.088C358.365 56.088 359.805 54.648 359.805 52.632C359.805 50.808 358.725 49.872 356.301 48.624ZM383.393 39.24C383.489 40.488 383.657 42.144 383.801 43.392C383.825 43.584 383.753 43.68 383.561 43.728C383.321 43.776 383.273 43.728 383.177 43.536C382.529 42.288 381.881 41.28 381.017 40.536C380.105 39.768 379.001 39.408 377.945 39.408C374.465 39.408 371.777 42.672 371.777 47.664C371.777 52.08 374.489 55.44 378.065 55.44C380.681 55.44 382.553 54.36 383.969 52.104C384.041 51.984 384.137 51.936 384.449 52.08C384.665 52.176 384.713 52.32 384.617 52.512C383.225 55.032 381.137 56.856 377.561 56.856C372.281 56.856 368.465 53.112 368.465 47.712C368.465 42.408 372.329 38.592 377.657 38.592C378.833 38.592 379.817 38.76 380.705 38.976C381.665 39.216 382.361 39.384 383.393 39.24ZM400.13 52.704L399.122 49.872C398.33 49.824 397.298 49.776 396.386 49.776C395.378 49.776 394.418 49.824 393.41 49.872L392.498 52.392C391.97 53.808 392.018 54.528 392.234 55.08C392.45 55.584 393.242 55.752 394.106 55.848C394.25 55.848 394.322 55.896 394.322 56.16C394.322 56.424 394.25 56.472 394.058 56.472C393.17 56.424 391.946 56.424 391.058 56.424C390.218 56.424 389.33 56.424 388.538 56.472C388.322 56.472 388.274 56.424 388.274 56.16C388.274 55.896 388.322 55.848 388.538 55.848C389.186 55.752 389.594 55.44 389.954 55.104C390.434 54.624 390.89 53.736 391.418 52.296L394.298 44.52C395.426 41.496 395.642 40.752 396.026 39.48L397.922 38.616C398.09 38.616 398.186 38.664 398.234 38.832C398.714 40.32 399.146 41.52 400.226 44.664L402.938 52.488C403.418 53.904 403.754 54.744 404.138 55.224C404.546 55.728 404.786 55.776 405.698 55.848C405.962 55.848 406.01 55.896 406.01 56.16C406.01 56.424 405.962 56.472 405.698 56.472C404.666 56.448 403.322 56.424 402.29 56.424C401.354 56.424 399.938 56.448 398.906 56.472C398.738 56.472 398.714 56.424 398.714 56.16C398.714 55.896 398.762 55.848 398.906 55.848C399.818 55.8 400.418 55.704 400.562 55.224C400.73 54.696 400.586 54.024 400.13 52.704ZM398.786 48.912L397.346 44.712C396.794 43.128 396.602 42.432 396.338 41.568C396.002 42.504 395.81 43.128 395.258 44.664L393.722 48.912C394.514 48.96 395.474 48.96 396.386 48.96C397.154 48.96 398.09 48.96 398.786 48.912ZM415.533 48.504V52.032C415.533 54.432 415.509 54.792 415.749 55.224C416.013 55.728 416.661 55.752 417.693 55.848C417.861 55.872 417.885 55.92 417.885 56.16C417.885 56.4 417.861 56.472 417.669 56.472C416.541 56.424 415.269 56.4 414.165 56.4C413.061 56.4 411.741 56.424 410.733 56.472C410.589 56.472 410.541 56.448 410.541 56.16C410.541 55.896 410.613 55.848 410.757 55.848C411.669 55.776 412.149 55.752 412.437 55.224C412.701 54.696 412.701 53.64 412.701 52.032V43.344C412.701 41.04 412.701 40.752 412.461 40.224C412.197 39.744 411.477 39.72 410.541 39.624C410.373 39.6 410.325 39.576 410.325 39.288C410.325 39.024 410.373 38.976 410.541 38.976C411.621 39.024 412.989 39.048 414.117 39.048C415.029 39.048 416.517 38.952 418.053 38.952C423.093 38.952 424.797 40.848 424.797 43.584C424.797 46.224 423.213 48.6 417.309 48.6C416.757 48.6 416.109 48.576 415.533 48.504ZM415.533 43.344V47.616C416.013 47.712 416.517 47.76 417.069 47.76C420.525 47.76 421.725 45.96 421.725 43.704C421.725 41.112 420.189 39.768 417.573 39.768C417.021 39.768 416.157 39.816 415.845 40.272C415.509 40.776 415.533 42.024 415.533 43.344ZM435.515 47.712V52.056C435.515 53.064 435.491 54.408 435.851 54.96C436.235 55.608 437.099 55.656 438.155 55.656C440.387 55.656 441.515 55.152 442.283 54.504C443.027 53.88 443.675 52.944 444.203 52.056C444.275 51.888 444.347 51.816 444.587 51.888C444.899 51.984 444.875 52.08 444.851 52.224C444.587 53.496 444.083 55.248 443.603 56.472C441.491 56.424 439.283 56.4 437.291 56.4C435.179 56.4 432.875 56.424 430.739 56.472C430.571 56.472 430.523 56.424 430.523 56.184C430.523 55.944 430.571 55.896 430.739 55.872C431.651 55.776 432.059 55.752 432.323 55.248C432.611 54.72 432.635 53.664 432.635 52.056V43.344C432.635 41.04 432.611 40.728 432.347 40.2C432.107 39.744 431.603 39.72 430.595 39.624C430.427 39.6 430.379 39.576 430.379 39.312C430.379 39.024 430.427 38.976 430.595 38.976C432.707 39.048 434.915 39.072 436.955 39.072C438.923 39.072 441.035 39.048 443.123 38.976C443.219 40.2 443.387 41.808 443.579 43.056C443.603 43.2 443.555 43.296 443.315 43.344C443.051 43.368 442.955 43.32 442.907 43.176C442.547 42.216 441.899 41.208 441.275 40.704C440.603 40.104 439.547 39.84 437.675 39.84C436.811 39.84 436.067 39.888 435.755 40.44C435.467 40.944 435.515 42.048 435.515 43.344V46.848C435.899 46.872 436.451 46.872 436.859 46.872C438.323 46.872 439.451 46.68 439.883 46.344C440.435 45.936 440.675 45.36 440.819 44.712C440.843 44.568 440.891 44.496 441.179 44.496C441.443 44.496 441.467 44.568 441.467 44.736C441.443 45.6 441.419 46.44 441.419 47.256C441.419 48.144 441.443 49.176 441.467 50.04C441.467 50.232 441.443 50.304 441.179 50.304C440.915 50.304 440.867 50.232 440.819 50.064C440.675 49.464 440.411 48.672 439.859 48.264C439.403 47.976 438.299 47.688 436.859 47.688C436.451 47.688 435.899 47.688 435.515 47.712ZM456.424 38.664C457.024 38.664 457.96 39.432 457.96 40.608C457.96 41.592 457.552 43.056 455.128 44.712C455.032 44.784 454.864 44.784 454.696 44.616C454.48 44.376 454.552 44.28 454.672 44.184C455.632 43.44 456.184 42.72 456.184 42.024C456.184 41.688 455.824 41.424 455.56 41.28C455.152 41.136 454.696 41.016 454.696 40.32C454.696 39.624 455.488 38.664 456.424 38.664ZM453.592 40.608C453.592 41.592 453.184 43.056 450.76 44.712C450.664 44.784 450.496 44.784 450.328 44.616C450.112 44.376 450.184 44.28 450.304 44.184C451.264 43.44 451.816 42.72 451.816 42.024C451.816 41.688 451.456 41.424 451.192 41.28C450.784 41.136 450.328 41.016 450.328 40.32C450.328 39.624 451.12 38.664 452.056 38.664C452.656 38.664 453.592 39.432 453.592 40.608Z" fill="#333333"/>
</svg>
